<svg width="20" height="20" viewBox="0 0 20 20" fill="none" xmlns="http://www.w3.org/2000/svg">
<path d="M10 0C4.47717 0 0 4.47717 0 10C0 15.5228 4.47717 20 10 20C15.5229 20 20 15.5228 20 10C20 4.47717 15.5229 0 10 0ZM10 19C5.03741 19 1 14.9626 1 10C1 5.03741 5.03741 1 10 1C14.9626 1 19 5.03741 19 10C19 14.9626 14.9626 19 10 19ZM16 10.0007C16 10.2771 15.7764 10.5007 15.5 10.5007H10.5V15.5017C10.5 15.7781 10.2764 16.0017 10 16.0017C9.72363 16.0017 9.5 15.7781 9.5 15.5017V10.5007H4.50146C4.2251 10.5007 4.00146 10.2771 4.00146 10.0007C4.00146 9.72437 4.2251 9.50073 4.50146 9.50073H9.5V4.50122C9.5 4.22485 9.72363 4.00122 10 4.00122C10.2764 4.00122 10.5 4.22485 10.5 4.50122V9.50073H15.5C15.7764 9.50073 16 9.72437 16 10.0007Z" fill="black"/>
</svg>
