<svg width="20" height="21" viewBox="0 0 20 21" fill="none" xmlns="http://www.w3.org/2000/svg">
<path fill-rule="evenodd" clip-rule="evenodd" d="M0 10.5C0 4.97715 4.47715 0.5 10 0.5C15.5228 0.5 20 4.97715 20 10.5C20 16.0228 15.5228 20.5 10 20.5C4.47715 20.5 0 16.0228 0 10.5ZM10 4.5C10.2761 4.5 10.5 4.72386 10.5 5V10H15.5C15.7761 10 16 10.2239 16 10.5C16 10.7761 15.7761 11 15.5 11H10.5V16C10.5 16.2761 10.2761 16.5 10 16.5C9.7239 16.5 9.5 16.2761 9.5 16V11H4.5C4.22386 11 4 10.7761 4 10.5C4 10.2239 4.22386 10 4.5 10H9.5V5C9.5 4.72386 9.7239 4.5 10 4.5Z" fill="black"/>
</svg>
