<svg width="20" height="20" viewBox="0 0 20 20" fill="none" xmlns="http://www.w3.org/2000/svg">
<path d="M14.2234 5.76622C14.028 5.57108 13.7114 5.57128 13.5163 5.76666L9.99734 9.2901L6.47367 5.76644C6.2784 5.57118 5.96182 5.57118 5.76656 5.76644C5.5713 5.9617 5.5713 6.27829 5.76656 6.47355L9.29064 9.9976L5.77119 13.5215C5.57605 13.7169 5.57625 14.0335 5.77164 14.2286C5.96702 14.4238 6.2836 14.4236 6.47874 14.2282L9.99774 10.7048L13.5165 14.2236C13.7118 14.4188 14.0284 14.4188 14.2236 14.2236C14.4189 14.0283 14.4189 13.7117 14.2236 13.5165L10.7044 9.9972L14.2238 6.47333C14.419 6.27794 14.4188 5.96136 14.2234 5.76622Z" fill="black"/>
<path fill-rule="evenodd" clip-rule="evenodd" d="M10 0C4.47715 0 0 4.47715 0 10C0 15.5228 4.47715 20 10 20C15.5228 20 20 15.5228 20 10C20 4.47715 15.5228 0 10 0ZM1 10C1 5.02944 5.02944 1 10 1C14.9706 1 19 5.02944 19 10C19 14.9706 14.9706 19 10 19C5.02944 19 1 14.9706 1 10Z" fill="black"/>
</svg>
